<?xml version="1.0" standalone="no"?>
<svg version="1.0" xmlns="http://www.w3.org/2000/svg"
 width="391.000000pt" height="390.000000pt" viewBox="0 0 391.000000 390.000000"
 preserveAspectRatio="xMidYMid meet">

<g transform="translate(0.000000,390.000000) scale(0.100000,-0.100000)"
fill="currentColor" stroke="none">
<path d="M1040 2310 l0 -50 -35 0 c-32 0 -35 -2 -35 -30 0 -28 3 -30 35 -30
32 0 35 -2 35 -29 0 -26 -4 -30 -32 -33 -29 -3 -33 -7 -36 -35 -3 -32 -2 -33
32 -33 33 0 36 -2 36 -29 0 -26 -4 -30 -32 -33 -29 -3 -33 -7 -36 -35 -3 -32
-2 -33 32 -33 33 0 36 -2 36 -30 0 -28 -3 -30 -36 -30 -34 0 -35 -1 -32 -32 3
-29 7 -33 36 -36 28 -3 32 -7 32 -33 0 -27 -3 -29 -35 -29 -32 0 -35 -2 -35
-30 0 -28 3 -30 35 -30 l35 0 0 -50 c0 -49 1 -50 30 -50 29 0 30 1 30 50 l0
50 95 0 95 0 0 -50 0 -50 35 0 35 0 0 50 c0 49 1 50 30 50 27 0 30 3 30 30 0
27 -3 30 -30 30 -27 0 -30 3 -30 29 0 25 4 30 28 33 22 2 28 8 30 36 3 30 1
32 -27 32 -28 0 -31 3 -31 30 0 27 3 30 31 30 28 0 30 2 27 33 -2 27 -8 33
-30 35 -24 3 -28 8 -28 33 0 26 3 29 31 29 28 0 30 2 27 33 -2 27 -8 33 -30
35 -24 3 -28 8 -28 33 0 26 3 29 30 29 27 0 30 3 30 30 0 27 -3 30 -29 30 -28
0 -30 2 -33 48 -3 45 -4 47 -35 50 l-33 3 0 -50 0 -51 -95 0 -95 0 0 50 c0 49
-1 50 -30 50 -29 0 -30 -1 -30 -50z m250 -140 l0 -30 -95 0 -95 0 0 30 0 30
95 0 95 0 0 -30z m0 -130 l0 -30 -95 0 -95 0 0 30 0 30 95 0 95 0 0 -30z m0
-130 l0 -30 -95 0 -95 0 0 30 0 30 95 0 95 0 0 -30z m0 -130 l0 -30 -95 0 -95
0 0 30 0 30 95 0 95 0 0 -30z"/>
<path d="M1572 2183 l3 -48 78 -3 77 -3 0 -209 0 -210 55 0 55 0 0 210 0 209
78 3 77 3 3 48 3 47 -216 0 -216 0 3 -47z"/>
<path d="M2046 2218 c4 -7 39 -60 77 -118 39 -57 70 -109 70 -115 0 -6 -36
-64 -80 -130 -43 -66 -83 -126 -87 -132 -5 -10 8 -13 57 -13 l64 0 58 91 57
90 54 -83 c29 -46 55 -87 56 -91 2 -4 34 -7 71 -5 l67 3 -89 134 c-50 74 -87
139 -84 145 4 6 40 59 80 117 40 59 73 110 73 113 0 3 -27 6 -60 6 l-59 0 -52
-80 c-58 -91 -47 -93 -113 18 l-37 62 -65 0 c-49 0 -63 -3 -58 -12z"/>
<path d="M2570 1970 l0 -260 60 0 60 0 0 260 0 260 -60 0 -60 0 0 -260z"/>
</g>
</svg>
